<svg width="300" height="207" viewBox="0 0 300 207" fill="none" xmlns="http://www.w3.org/2000/svg">
<path d="M150.002 206.129C232.846 206.129 300.005 197.178 300.005 186.136C300.005 175.094 232.846 166.142 150.002 166.142C67.1583 166.142 0 175.094 0 186.136C0 197.178 67.1583 206.129 150.002 206.129Z" fill="#EDF0FC"/>
<path d="M273.66 127.216C273.66 127.216 246.027 139.232 238.094 149.725C230.161 160.218 236.677 172.668 236.677 172.668C236.677 172.668 250.191 176.516 258.852 166.616C267.513 156.715 273.66 127.216 273.66 127.216Z" fill="#F9AB43"/>
<mask id="mask0_7031_1930" style="mask-type:luminance" maskUnits="userSpaceOnUse" x="234" y="127" width="40" height="47">
<path d="M273.66 127.216C273.66 127.216 246.027 139.232 238.094 149.725C230.161 160.218 236.677 172.668 236.677 172.668C236.677 172.668 250.191 176.516 258.852 166.616C267.513 156.715 273.66 127.216 273.66 127.216Z" fill="white"/>
</mask>
<g mask="url(#mask0_7031_1930)">
<path d="M281.147 144.429C282.286 144.253 283.424 144.077 284.563 143.902C285.148 143.812 285.057 142.894 284.468 142.984C276.436 144.224 268.404 145.463 260.371 146.702C259.619 146.818 258.867 146.934 258.115 147.05C258.74 146.282 259.365 145.513 259.991 144.745C262.18 142.054 264.37 139.363 266.56 136.671C274.526 135.442 282.493 134.214 290.458 132.984C291.597 132.809 292.736 132.633 293.875 132.457C294.46 132.367 294.368 131.449 293.781 131.539C285.748 132.779 277.716 134.018 269.683 135.257C268.931 135.373 268.179 135.489 267.427 135.605C268.639 134.116 269.851 132.627 271.063 131.137C272.285 129.635 273.507 128.133 274.729 126.632C275.289 125.943 275.984 125.262 276.457 124.508C276.478 124.474 276.51 124.444 276.535 124.412C276.91 123.952 276.195 123.369 275.82 123.83C274.353 125.633 272.885 127.437 271.418 129.24C269.849 131.168 268.281 133.096 266.712 135.024C266.313 127.299 265.913 119.573 265.514 111.847C265.454 110.696 265.394 109.545 265.335 108.395C265.304 107.8 264.387 107.897 264.418 108.489C264.838 116.606 265.258 124.722 265.677 132.839C265.733 133.923 265.789 135.007 265.845 136.09C264.178 138.14 262.51 140.189 260.843 142.238C259.695 143.649 258.548 145.059 257.4 146.47C257 138.744 256.601 131.018 256.201 123.293C256.142 122.142 256.082 120.991 256.022 119.84C255.992 119.246 255.074 119.343 255.105 119.934C255.525 128.051 255.945 136.167 256.365 144.284C256.42 145.368 256.477 146.452 256.532 147.535C253.717 150.995 250.902 154.454 248.087 157.915C247.687 150.189 247.288 142.463 246.888 134.738C246.829 133.587 246.769 132.436 246.709 131.285C246.679 130.691 245.761 130.788 245.792 131.379C246.212 139.496 246.632 147.612 247.051 155.729C247.107 156.813 247.163 157.897 247.219 158.98C244.404 162.44 241.589 165.899 238.774 169.36C238.374 161.634 237.975 153.908 237.575 146.183C237.515 145.032 237.456 143.881 237.396 142.73C237.366 142.136 236.448 142.233 236.479 142.824C236.899 150.941 237.318 159.057 237.738 167.174C237.794 168.258 237.85 169.342 237.906 170.425C237.573 170.834 237.241 171.243 236.908 171.652C235.686 173.154 234.464 174.656 233.242 176.157C232.681 176.846 231.987 177.527 231.514 178.281C231.492 178.315 231.461 178.346 231.435 178.377C231.061 178.837 231.775 179.421 232.151 178.959C233.618 177.156 235.085 175.352 236.553 173.549C237.242 172.702 237.931 171.854 238.621 171.007C246.587 169.778 254.553 168.549 262.519 167.32C263.658 167.144 264.797 166.969 265.935 166.793C266.521 166.703 266.429 165.785 265.841 165.875C257.808 167.115 249.776 168.354 241.744 169.594C240.992 169.71 240.24 169.826 239.487 169.942C242.034 166.812 244.581 163.682 247.127 160.552C247.396 160.222 247.664 159.892 247.933 159.562C255.899 158.333 263.865 157.104 271.831 155.875C272.969 155.699 274.109 155.524 275.247 155.347C275.832 155.257 275.741 154.339 275.153 154.43C267.121 155.669 259.089 156.908 251.056 158.148C250.304 158.264 249.552 158.38 248.8 158.496C251.615 155.036 254.43 151.577 257.245 148.116C265.215 146.887 273.181 145.658 281.147 144.429Z" fill="#EB725F"/>
</g>
<path opacity="0.1" d="M268.511 146.355C267.581 147.677 266.598 148.989 265.546 150.281C256.397 161.525 244.985 168.581 235.523 169.808C236.115 171.589 236.677 172.667 236.677 172.667C236.677 172.667 250.191 176.516 258.852 166.615C262.662 162.261 265.984 154.116 268.511 146.355Z" fill="#0046A0"/>
<path d="M296.209 153.853C296.209 153.853 267.467 154.083 255.398 159.307C243.331 164.533 241.827 175.673 241.827 175.673C241.827 175.673 250.614 182.684 262.946 178.118C275.279 173.554 296.209 153.853 296.209 153.853Z" fill="#EB725F"/>
<mask id="mask1_7031_1930" style="mask-type:luminance" maskUnits="userSpaceOnUse" x="241" y="153" width="56" height="27">
<path d="M296.209 153.853C296.209 153.853 267.467 154.083 255.398 159.307C243.331 164.533 241.827 175.673 241.827 175.673C241.827 175.673 250.614 182.684 262.946 178.118C275.279 173.554 296.209 153.853 296.209 153.853Z" fill="white"/>
</mask>
<g mask="url(#mask1_7031_1930)">
<path d="M292.905 168.783C293.917 169.008 294.928 169.232 295.94 169.457C296.46 169.572 296.883 168.872 296.361 168.756C289.227 167.172 282.093 165.588 274.96 164.004C274.291 163.856 273.624 163.707 272.956 163.559C273.875 163.19 274.796 162.821 275.715 162.452C278.935 161.16 282.155 159.868 285.375 158.576C292.45 160.147 299.525 161.717 306.599 163.289C307.611 163.513 308.622 163.738 309.634 163.963C310.154 164.078 310.578 163.378 310.055 163.262C302.921 161.678 295.788 160.093 288.654 158.51C287.986 158.361 287.318 158.213 286.65 158.065C288.432 157.349 290.215 156.634 291.997 155.919C293.794 155.198 295.591 154.477 297.387 153.756C298.211 153.426 299.139 153.142 299.928 152.737C299.963 152.719 300.005 152.706 300.043 152.69C300.594 152.469 300.335 151.82 299.783 152.042C297.625 152.908 295.468 153.774 293.31 154.639C291.003 155.565 288.696 156.491 286.39 157.416C290.255 151.633 294.12 145.85 297.985 140.067C298.56 139.206 299.136 138.344 299.712 137.483C300.009 137.038 299.219 136.824 298.923 137.267C294.862 143.343 290.802 149.418 286.741 155.494C286.199 156.305 285.657 157.117 285.115 157.928C282.663 158.912 280.211 159.896 277.759 160.879C276.072 161.557 274.384 162.234 272.696 162.911C276.561 157.128 280.426 151.345 284.291 145.562C284.866 144.701 285.442 143.839 286.018 142.978C286.314 142.533 285.525 142.319 285.228 142.762C281.168 148.838 277.108 154.913 273.047 160.988C272.505 161.8 271.963 162.611 271.421 163.422C267.281 165.083 263.141 166.744 259.002 168.405C262.867 162.623 266.732 156.839 270.597 151.056C271.172 150.195 271.748 149.333 272.323 148.472C272.621 148.028 271.83 147.814 271.534 148.256C267.474 154.332 263.413 160.408 259.353 166.483C258.811 167.295 258.269 168.106 257.727 168.917C253.587 170.577 249.447 172.239 245.308 173.9C249.172 168.117 253.038 162.334 256.902 156.551C257.478 155.69 258.054 154.828 258.629 153.967C258.927 153.522 258.136 153.308 257.84 153.751C253.78 159.826 249.719 165.902 245.659 171.978C245.117 172.789 244.575 173.6 244.032 174.412C243.543 174.608 243.054 174.804 242.564 175.001C240.767 175.722 238.97 176.443 237.174 177.164C236.35 177.494 235.422 177.778 234.633 178.183C234.597 178.201 234.555 178.214 234.517 178.229C233.966 178.45 234.226 179.099 234.777 178.877C236.935 178.011 239.093 177.146 241.25 176.28C242.264 175.873 243.278 175.466 244.292 175.059C251.367 176.63 258.441 178.201 265.516 179.772C266.528 179.996 267.539 180.221 268.55 180.446C269.07 180.561 269.494 179.861 268.971 179.745C261.838 178.161 254.704 176.577 247.57 174.993C246.902 174.845 246.234 174.696 245.566 174.548C249.311 173.045 253.056 171.542 256.801 170.04C257.195 169.882 257.59 169.723 257.985 169.565C265.06 171.136 272.135 172.707 279.21 174.278C280.221 174.503 281.233 174.727 282.244 174.952C282.764 175.067 283.188 174.367 282.666 174.251C275.532 172.667 268.398 171.083 261.264 169.499C260.596 169.351 259.928 169.202 259.26 169.055C263.4 167.394 267.54 165.733 271.679 164.072C278.756 165.642 285.83 167.212 292.905 168.783Z" fill="#FFCF74"/>
</g>
<path opacity="0.1" d="M281.695 166.275C280.231 166.954 278.729 167.61 277.182 168.23C263.728 173.629 250.724 175.257 242.447 173.221C241.959 174.709 241.826 175.673 241.826 175.673C241.826 175.673 250.613 182.684 262.946 178.118C268.371 176.111 275.457 171.175 281.695 166.275Z" fill="#0046A0"/>
<path d="M8.07739 94.046C8.07739 94.046 25.0524 118.943 36.8441 124.772C48.6364 130.602 59.6465 121.872 59.6465 121.872C59.6465 121.872 60.8985 107.876 49.552 101.221C38.2055 94.5664 8.07739 94.046 8.07739 94.046Z" fill="#F9AB43"/>
<mask id="mask2_7031_1930" style="mask-type:luminance" maskUnits="userSpaceOnUse" x="8" y="94" width="52" height="33">
<path d="M8.07739 94.046C8.07739 94.046 25.0524 118.943 36.8441 124.772C48.6364 130.602 59.6465 121.872 59.6465 121.872C59.6465 121.872 60.8985 107.876 49.552 101.221C38.2055 94.5664 8.07739 94.046 8.07739 94.046Z" fill="white"/>
</mask>
<g mask="url(#mask2_7031_1930)">
<path d="M23.5859 83.4707C23.2003 82.3846 22.8148 81.2986 22.4285 80.2132C22.2303 79.6552 21.3457 79.917 21.5453 80.4775C24.2656 88.1363 26.9859 95.795 29.7062 103.454C29.9609 104.171 30.2156 104.888 30.4702 105.605C29.598 105.135 28.7258 104.664 27.8542 104.194C24.8009 102.546 21.7475 100.899 18.6941 99.2508C15.9965 91.6555 13.2982 84.0603 10.6006 76.4645C10.215 75.3784 9.82948 74.293 9.44327 73.207C9.24498 72.6491 8.36046 72.9109 8.56005 73.4714C11.2803 81.1301 14.0007 88.7888 16.721 96.4475C16.9756 97.1648 17.2303 97.8815 17.485 98.5989C15.795 97.6871 14.105 96.7754 12.415 95.863C10.7114 94.9435 9.00717 94.0246 7.30357 93.1051C6.52209 92.6833 5.7231 92.1286 4.89366 91.8052C4.85608 91.7903 4.81979 91.7657 4.78415 91.7463C4.26186 91.4644 3.82317 92.2757 4.3461 92.5582C6.39184 93.6624 8.43822 94.7659 10.484 95.8701C12.6716 97.0501 14.8586 98.2308 17.0463 99.4108C9.5314 101.249 2.01719 103.087 -5.49702 104.925C-6.61611 105.199 -7.73586 105.473 -8.85495 105.746C-9.43297 105.888 -9.16599 106.771 -8.59057 106.63C-0.695986 104.699 7.1986 102.768 15.0938 100.837C16.1481 100.579 17.2018 100.321 18.2561 100.063C20.5811 101.318 22.9068 102.572 25.2318 103.827C26.8324 104.69 28.4323 105.554 30.0328 106.417C22.518 108.255 15.0038 110.093 7.48955 111.931C6.37045 112.205 5.25071 112.478 4.13161 112.752C3.5536 112.894 3.82057 113.777 4.396 113.636C12.2906 111.705 20.1852 109.774 28.0804 107.843C29.1347 107.585 30.1883 107.327 31.2426 107.07C35.1682 109.188 39.0938 111.306 43.0187 113.424C35.5045 115.262 27.9897 117.1 20.4755 118.938C19.3564 119.211 18.2366 119.485 17.1175 119.759C16.5395 119.9 16.8065 120.783 17.3819 120.642C25.2765 118.711 33.1711 116.78 41.0663 114.849C42.1206 114.591 43.1743 114.333 44.2286 114.075C48.1541 116.193 52.0797 118.311 56.0047 120.429C48.4905 122.268 40.9756 124.105 33.4614 125.943C32.3423 126.217 31.2226 126.491 30.1035 126.765C29.5254 126.906 29.7924 127.789 30.3678 127.648C38.2624 125.717 46.157 123.786 54.0522 121.855C55.1065 121.597 56.1602 121.339 57.2145 121.081C57.6784 121.331 58.1424 121.582 58.6064 121.832C60.31 122.752 62.0142 123.671 63.7178 124.59C64.4993 125.012 65.2983 125.567 66.1277 125.891C66.1653 125.906 66.2016 125.93 66.2372 125.95C66.7595 126.232 67.1982 125.42 66.6753 125.138C64.6295 124.034 62.5832 122.931 60.5374 121.826C59.5758 121.307 58.6142 120.789 57.6532 120.27C54.9556 112.675 52.2573 105.079 49.5597 97.4837C49.1741 96.3976 48.7885 95.3116 48.4023 94.2262C48.204 93.6682 47.3195 93.93 47.5191 94.4905C50.2394 102.149 52.9597 109.808 55.68 117.467C55.9347 118.184 56.1893 118.901 56.444 119.618C52.893 117.702 49.3419 115.786 45.7909 113.87C45.4163 113.667 45.0424 113.465 44.6679 113.264C41.9703 105.669 39.272 98.0733 36.5744 90.4775C36.1888 89.3914 35.8033 88.3054 35.4171 87.22C35.2188 86.6621 34.3342 86.9239 34.5338 87.4844C37.2541 95.1431 39.9744 102.802 42.6947 110.461C42.9494 111.178 43.2041 111.895 43.4587 112.612C39.5332 110.494 35.6076 108.376 31.6826 106.258C28.9811 98.6617 26.2835 91.0659 23.5859 83.4707Z" fill="#EB725F"/>
</g>
<path opacity="0.1" d="M27.8428 95.5222C29.315 96.1884 30.7879 96.9096 32.2544 97.7008C45.0122 104.584 54.0783 114.475 57.0546 123.54C58.6928 122.624 59.6473 121.871 59.6473 121.871C59.6473 121.871 60.8992 107.876 49.5527 101.221C44.5618 98.2931 35.9382 96.5538 27.8428 95.5222Z" fill="#0046A0"/>
<path d="M30.0244 66.911C30.0244 66.911 35.6283 95.1036 43.0194 105.98C50.4105 116.858 61.6351 116.25 61.6351 116.25C61.6351 116.25 66.8781 106.307 60.0858 95.0459C53.2934 83.7849 30.0244 66.911 30.0244 66.911Z" fill="#EB725F"/>
<mask id="mask3_7031_1930" style="mask-type:luminance" maskUnits="userSpaceOnUse" x="30" y="66" width="34" height="51">
<path d="M30.0244 66.911C30.0244 66.911 35.6283 95.1036 43.0194 105.98C50.4105 116.858 61.6351 116.25 61.6351 116.25C61.6351 116.25 66.8781 106.307 60.0858 95.0459C53.2934 83.7849 30.0244 66.911 30.0244 66.911Z" fill="white"/>
</mask>
<g mask="url(#mask3_7031_1930)">
<path d="M45.31 67.3633C45.3411 66.3278 45.3729 65.2923 45.404 64.2568C45.4202 63.7248 44.6523 63.4397 44.6361 63.9743C44.4151 71.2785 44.1935 78.5828 43.9726 85.8871C43.9518 86.5707 43.9311 87.255 43.9103 87.9386C43.3757 87.104 42.8411 86.27 42.3065 85.4354C40.4351 82.5142 38.563 79.5924 36.6916 76.6712C36.9113 69.4272 37.1303 62.1839 37.35 54.9399C37.3811 53.9044 37.4129 52.8689 37.444 51.8334C37.4602 51.3014 36.6923 51.0162 36.6761 51.5508C36.4551 58.8551 36.2335 66.1593 36.0125 73.4629C35.9918 74.1466 35.9711 74.8309 35.9503 75.5145C34.9142 73.8978 33.8787 72.281 32.8425 70.6636C31.7979 69.0332 30.754 67.4035 29.7094 65.7731C29.2306 65.0253 28.7782 64.1667 28.2326 63.4675C28.208 63.4358 28.1873 63.3969 28.1659 63.3632C27.8458 62.8636 27.2574 63.2394 27.5775 63.7397C28.8314 65.6973 30.0859 67.6549 31.3398 69.6125C32.6805 71.7056 34.0212 73.798 35.3619 75.891C28.9577 73.1765 22.5542 70.4614 16.15 67.7469C15.1962 67.3426 14.2423 66.9382 13.2885 66.5339C12.796 66.3252 12.7338 67.1417 13.2243 67.3491C19.9525 70.2009 26.68 73.0528 33.4082 75.9053C34.3063 76.2863 35.2051 76.6667 36.1032 77.0477C37.5282 79.2723 38.9538 81.4968 40.3794 83.7214C41.3605 85.2527 42.3415 86.7832 43.322 88.3145C36.9178 85.6 30.5142 82.8849 24.1101 80.1704C23.1562 79.766 22.2023 79.3617 21.2485 78.9573C20.756 78.7487 20.6938 79.5652 21.1843 79.7725C27.9125 82.6244 34.6401 85.4762 41.3682 88.3287C42.2664 88.7097 43.1651 89.0901 44.0633 89.4711C46.4693 93.2269 48.876 96.9828 51.282 100.739C44.8778 98.0241 38.4743 95.3096 32.0701 92.5945C31.1162 92.1902 30.1624 91.7858 29.2085 91.3814C28.716 91.1728 28.6538 91.9893 29.1444 92.1973C35.8726 95.0491 42.6001 97.901 49.3283 100.753C50.2264 101.134 51.1252 101.514 52.0233 101.895C54.4293 105.651 56.836 109.407 59.242 113.163C52.8378 110.448 46.4343 107.734 40.0301 105.019C39.0763 104.614 38.1224 104.21 37.1686 103.806C36.6761 103.597 36.6139 104.413 37.1044 104.621C43.8326 107.473 50.5601 110.324 57.2883 113.177C58.1864 113.558 59.0852 113.938 59.9833 114.319C60.2678 114.763 60.5523 115.207 60.8368 115.652C61.8813 117.282 62.9253 118.912 63.9698 120.542C64.4487 121.29 64.901 122.148 65.4473 122.848C65.4719 122.879 65.4926 122.918 65.514 122.952C65.8341 123.452 66.4225 123.076 66.1024 122.576C64.8485 120.618 63.594 118.66 62.3401 116.703C61.7504 115.783 61.1614 114.863 60.5717 113.943C60.7914 106.699 61.0104 99.4555 61.2301 92.2115C61.2612 91.176 61.2929 90.1405 61.324 89.105C61.3402 88.573 60.5724 88.2879 60.5562 88.8225C60.3352 96.1268 60.1136 103.431 59.8926 110.735C59.8719 111.418 59.8511 112.103 59.8304 112.786C57.6538 109.389 55.4771 105.991 53.3005 102.594C53.0711 102.235 52.8417 101.878 52.6123 101.519C52.832 94.2754 53.051 87.0321 53.2707 79.7881C53.3018 78.7526 53.3336 77.7171 53.3647 76.6816C53.3809 76.1496 52.613 75.8644 52.5968 76.399C52.3758 83.7033 52.1542 91.0075 51.9332 98.3112C51.9125 98.9948 51.8918 99.6791 51.871 100.363C49.465 96.6069 47.0583 92.8511 44.6523 89.0953C44.8713 81.8513 45.0904 74.6073 45.31 67.3633Z" fill="#FFCF74"/>
</g>
<path opacity="0.1" d="M44.9434 78.844C45.8849 80.1555 46.8102 81.5086 47.709 82.9115C55.5291 95.1179 59.5616 107.588 59.1106 116.1C60.6638 116.302 61.6358 116.251 61.6358 116.251C61.6358 116.251 66.8788 106.308 60.0865 95.0466C57.0985 90.0933 50.9238 84.0552 44.9434 78.844Z" fill="#0046A0"/>
<path d="M247.146 181.997C247.146 183.961 245.539 185.568 243.576 185.568H56.4284C54.4643 185.568 52.8579 183.961 52.8579 181.997V60.95C52.8579 58.9859 54.465 57.3789 56.4284 57.3789H243.576C245.54 57.3789 247.146 58.9859 247.146 60.95V181.997Z" fill="#6E7FDD"/>
<path d="M237.824 67.3737H62.1807V179.014H237.824V67.3737Z" fill="#D0DBF7"/>
<path d="M40.2349 173.83V184.143C40.2349 186.363 42.0506 188.178 44.27 188.178H255.736C257.955 188.178 259.771 186.363 259.771 184.143V173.83H40.2349Z" fill="#6E7FDD"/>
<path d="M126.1 173.373V180.73C126.1 181.387 126.638 181.924 127.295 181.924H172.709C173.367 181.924 173.904 181.387 173.904 180.73V173.373H126.1Z" fill="#92A6F4"/>
<path d="M224.586 76.8831H72.2073V164.984H224.586V76.8831Z" fill="white"/>
<path d="M224.586 76.8831H72.2073V85.3725H224.586V76.8831Z" fill="#E2E6FF"/>
<path d="M79.6139 81.3238C79.6139 82.3969 78.7443 83.2665 77.6712 83.2665C76.5981 83.2665 75.7285 82.3969 75.7285 81.3238C75.7285 80.2507 76.5981 79.3811 77.6712 79.3811C78.7443 79.3811 79.6139 80.2507 79.6139 81.3238Z" fill="#EB725F"/>
<path d="M86.1554 81.3238C86.1554 82.3969 85.2858 83.2665 84.2127 83.2665C83.1396 83.2665 82.27 82.3969 82.27 81.3238C82.27 80.2507 83.1396 79.3811 84.2127 79.3811C85.2858 79.3811 86.1554 80.2507 86.1554 81.3238Z" fill="#F9AB43"/>
<path d="M92.6969 81.3238C92.6969 82.3969 91.8273 83.2665 90.7542 83.2665C89.6811 83.2665 88.8115 82.3969 88.8115 81.3238C88.8115 80.2507 89.6811 79.3811 90.7542 79.3811C91.8273 79.3811 92.6969 80.2507 92.6969 81.3238Z" fill="#6E7FDD"/>
<path d="M146.057 129.953C146.057 127.512 147.026 125.609 148.965 124.245L149.898 123.599C150.784 123.025 151.4 122.553 151.747 122.181C152.093 121.811 152.268 121.35 152.268 120.799C152.268 119.411 151.106 118.717 148.785 118.717C147.708 118.717 146.595 118.861 145.446 119.148C144.298 119.435 143.208 119.843 142.179 120.368V114.84C144.381 113.835 146.846 113.333 149.574 113.333C152.518 113.333 154.852 113.949 156.574 115.182C158.298 116.414 159.159 118.119 159.159 120.296C159.159 121.517 158.884 122.504 158.334 123.258C157.783 124.011 156.85 124.855 155.534 125.788C154.648 126.435 154.002 126.931 153.595 127.279C153.188 127.626 152.883 128.014 152.68 128.445C152.477 128.876 152.375 129.403 152.375 130.024V130.707H146.057V129.953ZM146.793 138.55C146.158 137.916 145.841 137.132 145.841 136.198C145.841 135.241 146.158 134.451 146.793 133.829C147.426 133.207 148.223 132.896 149.18 132.896C150.114 132.896 150.909 133.213 151.567 133.847C152.225 134.482 152.554 135.265 152.554 136.199C152.554 137.132 152.224 137.916 151.567 138.551C150.909 139.184 150.113 139.502 149.18 139.502C148.223 139.501 147.427 139.184 146.793 138.55Z" fill="#D0DBF7"/>
<path d="M150.002 156.071C133.139 156.071 119.419 142.352 119.419 125.488C119.419 108.625 133.139 94.9059 150.002 94.9059C166.866 94.9059 180.585 108.625 180.585 125.488C180.585 142.352 166.866 156.071 150.002 156.071ZM150.002 96.7857C134.175 96.7857 121.3 109.661 121.3 125.488C121.3 141.314 134.175 154.19 150.002 154.19C165.828 154.19 178.704 141.314 178.704 125.488C178.704 109.661 165.828 96.7857 150.002 96.7857Z" fill="#D0DBF7"/>
<path d="M287.172 117.318C287.172 119.155 285.67 120.658 283.832 120.658H192.501C190.664 120.658 189.162 119.155 189.162 117.318V99.2468C189.162 97.4103 190.664 95.907 192.501 95.907H283.832C285.669 95.907 287.172 97.4097 287.172 99.2468V117.318Z" fill="#EB725F"/>
<path d="M219.185 99.215H217.85V117.35H219.185V99.215Z" fill="#FFCF74"/>
<path d="M211.019 111.88L206.461 109.569C206.783 108.644 206.798 107.646 206.489 106.699C206.115 105.557 205.319 104.628 204.246 104.084C203.174 103.54 201.954 103.446 200.811 103.82C199.669 104.194 198.74 104.991 198.196 106.062C197.652 107.135 197.558 108.355 197.932 109.498C198.306 110.641 199.103 111.569 200.175 112.113C201.247 112.656 202.467 112.75 203.61 112.377C204.556 112.067 205.352 111.464 205.908 110.659L210.467 112.97L211.019 111.88ZM200.728 111.022C199.947 110.626 199.366 109.95 199.094 109.117C198.822 108.285 198.89 107.396 199.286 106.615C199.682 105.834 200.358 105.254 201.191 104.982C202.024 104.709 202.912 104.777 203.693 105.173C204.474 105.569 205.054 106.246 205.327 107.079C205.599 107.911 205.531 108.8 205.134 109.581C204.738 110.362 204.062 110.942 203.229 111.215C202.398 111.487 201.509 111.419 200.728 111.022Z" fill="white"/>
<path d="M200.261 106.836L200.915 107.167C201.247 106.512 202.051 106.249 202.706 106.582L203.038 105.928C202.022 105.413 200.776 105.819 200.261 106.836Z" fill="white"/>
<path d="M106.111 122.993H16.1721V180.207H106.111V122.993Z" fill="#F5F9FF"/>
<path d="M106.111 122.993H16.1721V130.129H106.111V122.993Z" fill="#E2E6FF"/>
<path d="M20.765 128.359C21.6669 128.359 22.398 127.628 22.398 126.726C22.398 125.824 21.6669 125.093 20.765 125.093C19.8632 125.093 19.1321 125.824 19.1321 126.726C19.1321 127.628 19.8632 128.359 20.765 128.359Z" fill="#EB725F"/>
<path d="M27.897 126.726C27.897 127.628 27.1661 128.359 26.2641 128.359C25.362 128.359 24.6311 127.628 24.6311 126.726C24.6311 125.824 25.362 125.093 26.2641 125.093C27.1661 125.093 27.897 125.824 27.897 126.726Z" fill="#F9AB43"/>
<path d="M31.7628 128.359C32.6647 128.359 33.3958 127.628 33.3958 126.726C33.3958 125.824 32.6647 125.093 31.7628 125.093C30.861 125.093 30.1299 125.824 30.1299 126.726C30.1299 127.628 30.861 128.359 31.7628 128.359Z" fill="#6E7FDD"/>
<path d="M29.4219 154.386C30.7438 152.79 32.0651 151.543 33.387 150.404C34.7083 149.248 36.0302 148.282 37.3521 147.363C39.9953 145.576 42.6385 144.184 45.2817 143.12C50.5681 140.976 55.8544 140.049 61.1415 140.025C66.4279 140.02 71.7149 140.942 77.0013 143.079C79.6445 144.141 82.2877 145.537 84.9308 147.328C86.2521 148.251 87.574 149.221 88.896 150.382C90.2172 151.525 91.5392 152.78 92.8611 154.386C91.5392 155.991 90.2179 157.246 88.896 158.389C87.574 159.551 86.2528 160.52 84.9308 161.444C82.2877 163.234 79.6445 164.631 77.0013 165.693C71.7149 167.829 66.4279 168.751 61.1415 168.746C55.8551 168.722 50.5687 167.795 45.2817 165.652C42.6385 164.587 39.9953 163.196 37.3521 161.408C36.0308 160.491 34.7089 159.523 33.387 158.367C32.0651 157.229 30.7438 155.982 29.4219 154.386Z" fill="#FFCF74"/>
<path d="M68.8566 155.19C64.6693 155.19 61.2744 151.795 61.2744 147.608C61.2744 145.924 61.8304 144.374 62.759 143.115C62.2289 143.039 61.6917 142.987 61.1409 142.987C54.8456 142.987 49.7419 148.091 49.7419 154.386C49.7419 160.682 54.8456 165.785 61.1409 165.785C67.4362 165.785 72.5399 160.682 72.5399 154.386C72.5399 154.337 72.5334 154.288 72.5321 154.237C71.4435 154.843 70.1915 155.19 68.8566 155.19Z" fill="#EB725F"/>
<path d="M29.4219 154.386C31.2693 152.032 33.4809 149.97 35.8267 148.083C38.1971 146.225 40.736 144.55 43.4485 143.175C46.1455 141.768 49.0291 140.703 51.9943 139.924C54.968 139.171 58.0421 138.794 61.1214 138.756C61.8912 138.779 62.663 138.758 63.4302 138.827L65.73 139.039C67.2469 139.287 68.7782 139.484 70.2549 139.914C71.7551 140.255 73.1852 140.817 74.6341 141.302L76.7395 142.205L77.7808 142.676L78.7865 143.217C84.1779 146.045 88.9206 149.904 92.8604 154.385C88.1417 150.734 83.1825 147.49 77.8638 145.141L76.871 144.694L75.8504 144.32L73.8209 143.556C72.4329 143.161 71.0688 142.687 69.6517 142.433C68.2565 142.082 66.8322 141.9 65.415 141.693L63.2734 141.527C62.5599 141.47 61.842 141.509 61.1272 141.489C55.3983 141.472 49.6933 142.818 44.3524 145.099C41.6846 146.252 39.0887 147.615 36.5978 149.174C34.0927 150.717 31.6977 152.457 29.4219 154.386Z" fill="#6E7FDD"/>
<path d="M78.296 134.87L41.3279 171.838L42.647 173.157L79.6151 136.189L78.296 134.87Z" fill="#6E7FDD"/>
<path d="M202.987 0.0308838H113.048V57.2454H202.987V0.0308838Z" fill="#F5F9FF"/>
<path d="M202.987 0.0308838H113.048V7.16666H202.987V0.0308838Z" fill="#E2E6FF"/>
<path d="M117.641 5.39702C118.543 5.39702 119.274 4.66592 119.274 3.76406C119.274 2.8622 118.543 2.1311 117.641 2.1311C116.739 2.1311 116.008 2.8622 116.008 3.76406C116.008 4.66592 116.739 5.39702 117.641 5.39702Z" fill="#C1D1F4"/>
<path d="M124.773 3.76406C124.773 4.66608 124.042 5.39702 123.14 5.39702C122.238 5.39702 121.507 4.66608 121.507 3.76406C121.507 2.86205 122.238 2.1311 123.14 2.1311C124.042 2.1311 124.773 2.86205 124.773 3.76406Z" fill="#C1D1F4"/>
<path d="M128.639 5.39702C129.541 5.39702 130.272 4.66592 130.272 3.76406C130.272 2.8622 129.541 2.1311 128.639 2.1311C127.737 2.1311 127.006 2.8622 127.006 3.76406C127.006 4.66592 127.737 5.39702 128.639 5.39702Z" fill="#C1D1F4"/>
<path d="M194.971 13.3894H105.033V70.6039H194.971V13.3894Z" fill="#F5F9FF"/>
<path d="M194.971 13.3894H105.033V20.5252H194.971V13.3894Z" fill="#E2E6FF"/>
<path d="M109.627 18.7548C110.528 18.7548 111.26 18.0237 111.26 17.1219C111.26 16.22 110.528 15.4889 109.627 15.4889C108.725 15.4889 107.994 16.22 107.994 17.1219C107.994 18.0237 108.725 18.7548 109.627 18.7548Z" fill="#EB725F"/>
<path d="M116.759 17.1219C116.759 18.0239 116.028 18.7548 115.126 18.7548C114.224 18.7548 113.493 18.0239 113.493 17.1219C113.493 16.2198 114.224 15.4889 115.126 15.4889C116.027 15.4889 116.759 16.2198 116.759 17.1219Z" fill="#F9AB43"/>
<path d="M120.624 18.7548C121.526 18.7548 122.257 18.0237 122.257 17.1219C122.257 16.22 121.526 15.4889 120.624 15.4889C119.722 15.4889 118.991 16.22 118.991 17.1219C118.991 18.0237 119.722 18.7548 120.624 18.7548Z" fill="#6E7FDD"/>
<path d="M166.279 61.762H133.893C132.067 61.762 130.624 61.0324 129.936 59.7603C129.247 58.4883 129.424 56.8813 130.422 55.3526V55.352L146.197 31.1848C147.162 29.7054 148.58 28.8566 150.086 28.8566C151.592 28.8566 153.01 29.7055 153.975 31.1842L169.75 55.3526C170.748 56.8819 170.925 58.4883 170.236 59.7603C169.547 61.0317 168.105 61.762 166.279 61.762ZM133.29 57.2234C132.936 57.7658 132.931 58.0801 132.949 58.1345C132.979 58.1688 133.245 58.3367 133.892 58.3367H166.278C166.925 58.3367 167.191 58.1682 167.227 58.1235C167.239 58.0794 167.234 57.7651 166.881 57.2228L151.106 33.055C150.79 32.5696 150.408 32.28 150.085 32.28C149.762 32.28 149.381 32.5696 149.063 33.0556L133.29 57.2234Z" fill="#EB725F"/>
<path d="M149.093 55.2088C148.832 54.947 148.701 54.6243 148.701 54.2401C148.701 53.8558 148.832 53.5324 149.093 53.2713C149.355 53.0095 149.678 52.8786 150.062 52.8786C150.447 52.8786 150.773 53.0095 151.043 53.2713C151.311 53.5331 151.447 53.8558 151.447 54.2401C151.447 54.625 151.311 54.9477 151.043 55.2088C150.773 55.47 150.447 55.6009 150.062 55.6009C149.678 55.6009 149.355 55.47 149.093 55.2088ZM148.286 39.1281H151.885L151.216 50.6404H148.954L148.286 39.1281Z" fill="#EB725F"/>
<path d="M248.722 10.5816C245.035 7.02215 240.08 5.04705 234.964 5.01465C229.671 5.04834 224.528 7.16731 220.821 10.9646C217.066 14.8105 214.982 20.1461 215.193 25.5239C215.329 28.9745 216.369 32.3395 218.191 35.2665C217.526 37.8585 216.861 40.4505 216.196 43.0425C215.876 44.288 217.007 45.4123 218.25 45.0967C221.155 44.3586 224.061 43.6212 226.967 42.8831C231.526 44.8381 236.712 45.1641 241.428 43.5033C245.64 42.02 249.256 39.1701 251.668 35.4084C256.665 27.613 255.367 16.9975 248.722 10.5816ZM250.927 28.7749C249.708 33.6381 246.309 37.6661 241.777 39.7818C239.472 40.8581 236.895 41.3176 234.363 41.2366C232.706 41.1834 231.083 40.864 229.516 40.3255C228.482 39.9697 227.552 39.3139 226.436 39.5712C224.325 40.0572 222.226 40.6099 220.127 41.1594C220.356 40.2684 220.584 39.3781 220.813 38.4871C221.052 37.552 221.313 36.6189 221.533 35.6787C221.658 35.1492 221.7 34.6652 221.428 34.1481C220.919 33.1832 220.281 32.3162 219.843 31.306C216.921 24.559 219.005 16.6359 224.621 12.0014C227.514 9.61351 231.234 8.37712 234.964 8.35379C240.015 8.38554 244.857 10.7028 247.968 14.7113C251.031 18.6596 252.141 23.9291 250.927 28.7749Z" fill="#F9AB43"/>
<path d="M234.942 13.731C228.838 13.731 223.873 18.6966 223.873 24.7994C223.873 30.903 228.838 35.8686 234.942 35.8686C241.045 35.8686 246.01 30.903 246.01 24.7994C246.01 18.6966 241.045 13.731 234.942 13.731ZM227.134 24.8001C227.134 20.4954 230.636 16.9923 234.942 16.9923C236.468 16.9923 237.921 17.4252 239.185 18.2508L228.392 29.0432C227.567 27.7802 227.134 26.3268 227.134 24.8001ZM234.942 32.6078C233.415 32.6078 231.961 32.175 230.698 31.3494L241.491 20.5563C242.316 21.8199 242.749 23.2728 242.749 24.8001C242.749 29.1048 239.247 32.6078 234.942 32.6078Z" fill="#CFD6F9"/>
<path d="M284.968 74.5884C284.304 73.7817 283.659 73.1933 283.172 72.7727C282.546 72.2219 281.919 71.7683 281.385 71.3957C280.236 70.6175 279.037 69.9753 277.823 69.4874C275.569 68.5763 273.176 68.1143 270.691 68.1143C268.176 68.1259 265.846 68.5802 263.567 69.5042C262.345 69.9967 261.144 70.6395 259.996 71.4165C259.473 71.7793 258.854 72.2252 258.223 72.7766C257.731 73.1998 257.083 73.7875 256.422 74.5865L256.008 75.0867L256.422 75.587C257.083 76.386 257.73 76.9718 258.218 77.3923C258.854 77.9489 259.477 78.3961 260.003 78.7622C261.146 79.5353 262.344 80.1761 263.565 80.668C265.845 81.592 268.177 82.0469 270.694 82.0586H270.714C273.177 82.0586 275.568 81.5965 277.821 80.6861C279.038 80.1975 280.24 79.5534 281.396 78.77C281.923 78.4013 282.547 77.9502 283.168 77.404C283.657 76.9802 284.305 76.3912 284.969 75.5844L285.379 75.0854L284.968 74.5884ZM282.136 76.2447C281.567 76.7424 280.991 77.1564 280.505 77.4947C279.449 78.2069 278.348 78.7939 277.234 79.2391C275.139 80.0815 273.006 80.4917 270.698 80.4917C268.386 80.4813 266.246 80.066 264.153 79.2216C263.034 78.7732 261.936 78.1881 260.89 77.485C260.403 77.1487 259.828 76.7372 259.246 76.2311C258.924 75.9557 258.508 75.5857 258.069 75.1153C258.51 74.6429 258.928 74.2722 259.25 73.9955C259.827 73.4939 260.4 73.0844 260.882 72.7507C261.932 72.0437 263.033 71.4573 264.154 71.0076C266.246 70.1639 268.385 69.7485 270.714 69.7381C273.006 69.7381 275.139 70.1477 277.236 70.9907C278.348 71.4353 279.446 72.0204 280.496 72.728C280.987 73.0695 281.566 73.4862 282.14 73.9884C282.462 74.2644 282.878 74.637 283.322 75.1146C282.879 75.5922 282.46 75.9654 282.136 76.2447Z" fill="#F9AB43"/>
<path d="M275.076 74.1231L274.285 74.5625C273.986 74.7284 273.647 74.8165 273.304 74.8165C272.189 74.8165 271.281 73.9086 271.281 72.7934C271.281 72.3606 271.419 71.9465 271.678 71.5953L272.217 70.865L271.318 70.7373C271.085 70.7043 270.887 70.6887 270.694 70.6887C268.269 70.6887 266.296 72.6619 266.296 75.0874C266.296 77.5128 268.269 79.4853 270.694 79.4853C273.12 79.4853 275.092 77.5122 275.092 75.0874C275.092 75.0653 275.091 75.0433 275.09 75.0284L275.076 74.1231Z" fill="#F9AB43"/>
<path d="M279.114 65.8308L261.433 83.5114L262.266 84.3444L279.947 66.6638L279.114 65.8308Z" fill="#EB725F"/>
<path d="M55.8225 40.9559C55.2095 40.9559 54.6464 41.0713 54.198 41.2624C54.0198 40.1744 53.5941 39.1726 52.9765 38.314C53.4301 38.1326 53.9096 37.8215 54.3445 37.3867C55.378 36.3538 55.7571 35.0578 55.1927 34.4934C54.6276 33.9284 53.3323 34.3081 52.2994 35.3417C51.8646 35.7765 51.5542 36.256 51.3721 36.7096C50.5135 36.092 49.5117 35.6663 48.4237 35.4881C48.6148 35.0397 48.7302 34.4766 48.7302 33.8636C48.7302 32.4023 48.0828 31.2178 47.2838 31.2178C46.4849 31.2178 45.8375 32.4023 45.8375 33.8636C45.8375 34.4766 45.9529 35.0397 46.144 35.4881C45.056 35.6663 44.0542 36.092 43.1956 36.7096C43.0142 36.256 42.7031 35.7765 42.2683 35.3417C41.2354 34.3087 39.9394 33.929 39.375 34.4934C38.8099 35.0585 39.1897 36.3538 40.2232 37.3867C40.658 37.8215 41.1376 38.1319 41.5912 38.314C40.9736 39.1726 40.5479 40.1744 40.3697 41.2624C39.9213 41.0713 39.3582 40.9559 38.7451 40.9559C37.2839 40.9559 36.0994 41.6033 36.0994 42.4023C36.0994 43.2012 37.2839 43.8486 38.7451 43.8486C39.3582 43.8486 39.9213 43.7333 40.3697 43.5421C40.5479 44.6301 40.9736 45.6319 41.5912 46.4905C41.1376 46.6719 40.658 46.983 40.2232 47.4178C39.1897 48.4507 38.8106 49.7467 39.375 50.3117C39.9401 50.8768 41.2354 50.4971 42.2683 49.4635C42.7031 49.0287 43.0135 48.5492 43.1956 48.0956C44.0542 48.7131 45.056 49.1389 46.144 49.3171C45.9529 49.7655 45.8375 50.3286 45.8375 50.9416C45.8375 52.4028 46.4849 53.5874 47.2838 53.5874C48.0828 53.5874 48.7302 52.4028 48.7302 50.9416C48.7302 50.3286 48.6148 49.7655 48.4237 49.3171C49.5117 49.1389 50.5135 48.7131 51.3721 48.0956C51.5535 48.5492 51.8646 49.0287 52.2994 49.4635C53.3323 50.4971 54.6283 50.8762 55.1927 50.3117C55.7577 49.7467 55.378 48.4513 54.3445 47.4178C53.9096 46.983 53.4301 46.6726 52.9765 46.4905C53.5941 45.6319 54.0198 44.6301 54.198 43.5421C54.6464 43.7333 55.2095 43.8486 55.8225 43.8486C57.2838 43.8486 58.4683 43.2012 58.4683 42.4023C58.4683 41.6033 57.2838 40.9559 55.8225 40.9559ZM47.2832 47.0141C44.7366 47.0141 42.6714 44.9495 42.6714 42.4023C42.6714 39.8556 44.7359 37.7904 47.2832 37.7904C49.8305 37.7904 51.895 39.855 51.895 42.4023C51.895 44.9495 49.8298 47.0141 47.2832 47.0141Z" fill="#6E7FDD"/>
<path d="M78.7183 25.3851C77.8921 25.0527 77.0717 24.9024 76.3635 24.9173C76.7128 23.3556 76.6829 21.7745 76.3162 20.2834C77.0257 20.2847 77.8403 20.126 78.6613 19.7761C80.6131 18.9447 81.8268 17.405 81.3719 16.3378C80.917 15.2705 78.9665 15.08 77.0147 15.9114C76.1931 16.2613 75.5153 16.7389 75.0247 17.2515C74.2031 15.9542 73.0839 14.8377 71.7154 14.0082C72.2163 13.508 72.6764 12.812 73.0088 11.9858C73.8006 10.0178 73.5706 8.07124 72.4943 7.63772C71.4179 7.20486 69.9036 8.44902 69.1117 10.4176C68.7793 11.2438 68.6296 12.0642 68.6439 12.7725C67.0822 12.4226 65.5011 12.453 64.01 12.8198C64.0113 12.1102 63.8525 11.2957 63.5026 10.4747C62.6706 8.52289 61.1316 7.30919 60.0643 7.76408C58.9971 8.21898 58.8066 10.1695 59.638 12.1212C59.9879 12.9429 60.4654 13.6207 60.978 14.1112C59.6807 14.9329 58.5642 16.052 57.7348 17.4206C57.2345 16.9197 56.5386 16.4596 55.7124 16.1272C53.7444 15.3353 51.7971 15.5654 51.3643 16.6417C50.9314 17.718 52.1756 19.2324 54.1442 20.0242C54.9704 20.3567 55.7908 20.507 56.499 20.4921C56.1498 22.0538 56.1796 23.6349 56.5463 25.126C55.8368 25.1247 55.0222 25.2834 54.2012 25.6333C52.2495 26.4647 51.0357 28.0044 51.4906 29.0716C51.9455 30.1389 53.896 30.3294 55.8484 29.498C56.6701 29.1481 57.3479 28.6705 57.8385 28.1579C58.6601 29.4552 59.7792 30.5717 61.1478 31.4012C60.6469 31.9021 60.1868 32.5974 59.8544 33.4236C59.0625 35.3922 59.2926 37.3388 60.3689 37.7717C61.4452 38.2045 62.9596 36.9604 63.7515 34.9917C64.0839 34.1655 64.2342 33.3452 64.2193 32.6369C65.781 32.9868 67.3615 32.9564 68.8525 32.5896C68.8512 33.2992 69.01 34.1137 69.3599 34.9347C70.1919 36.8865 71.7309 38.1002 72.7982 37.6453C73.8654 37.1904 74.056 35.2399 73.2246 33.2875C72.8747 32.4658 72.3971 31.788 71.8845 31.2975C73.1818 30.4758 74.2983 29.3567 75.1277 27.9882C75.628 28.4891 76.324 28.9491 77.1502 29.2816C79.1181 30.0734 81.0654 29.8434 81.4982 28.7671C81.9311 27.6914 80.6869 26.177 78.7183 25.3851ZM63.9322 28.9167C60.5011 27.5365 58.8396 23.6355 60.2199 20.205C61.6007 16.7739 65.5011 15.1124 68.9316 16.4926C72.3621 17.8729 74.0242 21.7738 72.644 25.2044C71.2637 28.6355 67.3628 30.2976 63.9322 28.9167Z" fill="#6E7FDD"/>
<path d="M207.525 44.8841C207.525 45.6228 206.926 46.2222 206.187 46.2222C205.448 46.2222 204.85 45.6235 204.85 44.8841C204.85 44.1447 205.448 43.5466 206.187 43.5466C206.926 43.5466 207.525 44.1454 207.525 44.8841Z" fill="#EEF1FF"/>
<path d="M182.864 186.844C182.292 187.72 182.285 188.228 182.315 188.317C182.363 188.372 182.792 188.644 183.839 188.644H236.183C237.229 188.644 237.659 188.372 237.716 188.3C237.736 188.229 237.729 187.721 237.157 186.845L211.662 147.783C211.15 146.999 210.533 146.53 210.011 146.53C209.489 146.53 208.872 146.999 208.36 147.783L182.864 186.844Z" fill="#FFCF74"/>
<path d="M236.183 194.179H183.838C180.887 194.179 178.556 193 177.442 190.944C176.329 188.888 176.615 186.291 178.228 183.82L203.724 144.758C205.285 142.367 207.576 140.995 210.01 140.995C212.444 140.995 214.735 142.367 216.295 144.758L241.792 183.82C243.404 186.291 243.691 188.888 242.578 190.944C241.465 193 239.134 194.179 236.183 194.179ZM182.864 186.844C182.292 187.72 182.285 188.228 182.315 188.317C182.363 188.372 182.793 188.644 183.839 188.644H236.183C237.229 188.644 237.659 188.372 237.716 188.3C237.736 188.229 237.729 187.721 237.157 186.845L211.662 147.783C211.15 146.999 210.533 146.53 210.011 146.53C209.489 146.53 208.872 146.999 208.36 147.783L182.864 186.844Z" fill="#EB725F"/>
<path d="M208.407 183.588C207.985 183.165 207.774 182.643 207.774 182.022C207.774 181.4 207.985 180.879 208.407 180.456C208.83 180.034 209.351 179.822 209.973 179.822C210.594 179.822 211.122 180.034 211.559 180.456C211.992 180.879 212.211 181.401 212.211 182.022C212.211 182.643 211.993 183.165 211.559 183.588C211.122 184.01 210.595 184.222 209.973 184.222C209.351 184.222 208.83 184.01 208.407 183.588ZM207.102 157.597H212.919L211.839 176.205H208.183L207.102 157.597Z" fill="#EB725F"/>
</svg>
