<svg width="318" height="318" viewBox="0 0 318 318" fill="none" xmlns="http://www.w3.org/2000/svg">
<path d="M56.9681 199.041C56.8053 198.821 56.6463 198.599 56.4822 198.381C54.634 195.926 52.6726 193.555 50.603 191.284C50.6545 186.709 50.5451 169.406 45.9087 170.297C41.6278 171.119 47.2157 184.819 49.5994 190.218C48.6963 189.257 47.7754 188.313 46.8322 187.391C43.7043 183.331 33.1874 170.255 30.1047 173.795C27.2485 177.075 39.7478 184.312 45.2409 187.267C46.261 188.24 47.2634 189.232 48.2371 190.251C42.943 187.607 29.7441 181.497 28.5707 185.672C27.2987 190.199 44.5572 191.157 49.2464 191.333C51.6817 193.96 53.9694 196.725 56.107 199.602C51.3656 196.599 38.2424 188.758 36.6276 192.898C34.8976 197.333 52.4379 199.987 56.8275 200.577C59.135 203.761 61.2605 207.079 63.2092 210.496C58.6764 206.655 47.3531 197.628 45.2256 201.397C42.9157 205.487 59.4148 210.516 63.9476 211.809C64.2618 212.376 64.5753 212.944 64.8799 213.517C66.4242 216.425 67.8507 219.402 69.1628 222.431C65.0542 218.405 54.0845 208.233 51.66 211.901C49.0582 215.838 65.3264 222.047 69.6703 223.619C71.6133 228.236 73.2675 232.975 74.6114 237.791C71.1013 233.221 61.6815 221.635 58.7686 224.924C55.6401 228.457 70.88 236.888 74.9618 239.054C75.0159 239.258 75.0776 239.459 75.1304 239.663C75.5609 241.314 75.9801 242.981 76.2726 244.664C76.3845 245.308 77.3882 245.153 77.2762 244.508C76.9849 242.835 76.6097 241.17 76.1836 239.515C78.2658 235.328 85.611 219.852 81.0719 218.64C76.9417 217.536 75.9591 231.713 75.7276 237.825C74.9535 235.07 74.046 232.348 73.0971 229.681C72.4172 227.771 71.689 225.877 70.9181 223.999C72.3504 219.7 77.5586 203.12 72.8617 202.552C68.5745 202.034 69.6538 216.496 70.2796 222.474C68.7774 218.948 67.1129 215.488 65.2819 212.119C66.4102 207.732 70.4469 190.826 65.7214 190.588C61.3622 190.369 63.5418 205.035 64.5715 210.832C62.5764 207.268 60.3942 203.81 58.02 200.488C58.5358 195.718 60.0336 178.866 55.3845 179.294C51.1544 179.681 55.0601 193.168 56.9681 199.041Z" fill="#EB725F"/>
<path d="M276.297 171.167C276.412 170.919 276.531 170.673 276.644 170.425C277.918 167.628 279.064 164.772 280.07 161.869C284.114 159.728 299.261 151.365 296.264 147.718C293.496 144.35 284.131 155.805 280.527 160.479C280.94 159.226 281.33 157.966 281.689 156.697C283.761 152.009 290.224 136.523 285.641 135.506C281.395 134.564 281.009 149.003 281.039 155.24C280.671 156.601 280.278 157.955 279.849 159.298C279.642 153.384 278.703 138.87 274.474 139.834C269.889 140.879 277.294 156.498 279.381 160.702C278.236 164.096 276.901 167.426 275.394 170.679C275.767 165.078 276.385 149.804 271.976 150.363C267.253 150.963 273.303 167.639 274.881 171.778C273.187 175.326 271.287 178.779 269.217 182.123C270.426 176.306 272.945 162.046 268.618 161.977C263.921 161.902 267.387 178.799 268.417 183.398C268.069 183.945 267.719 184.492 267.362 185.034C265.546 187.78 263.611 190.456 261.578 193.055C263.152 187.523 266.846 173.026 262.465 172.649C257.763 172.244 260.082 189.501 260.776 194.069C257.649 197.981 254.277 201.699 250.687 205.18C253.025 199.913 258.702 186.102 254.421 185.115C249.823 184.055 249.698 201.47 249.745 206.092C249.593 206.237 249.445 206.387 249.291 206.53C248.047 207.697 246.782 208.862 245.444 209.923C244.932 210.33 245.547 211.138 246.06 210.731C247.391 209.675 248.674 208.55 249.924 207.385C254.598 207.213 271.701 206.272 270.598 201.706C269.594 197.55 256.671 203.46 251.191 206.177C253.242 204.181 255.199 202.083 257.089 199.975C258.441 198.466 259.757 196.92 261.039 195.346C265.5 194.551 282.553 191.204 280.808 186.807C279.215 182.793 267.025 190.651 262.073 194.057C264.454 191.053 266.697 187.937 268.782 184.719C273.175 183.615 289.955 179.083 287.907 174.818C286.017 170.884 274.175 179.806 269.575 183.48C271.752 180.024 273.747 176.455 275.531 172.783C279.968 170.957 295.487 164.221 292.89 160.342C290.526 156.81 280.545 166.685 276.297 171.167Z" fill="#EB725F"/>
<path d="M90.6997 184.437C90.6997 184.437 92.3686 180.887 93.2202 176.203C93.0777 174.734 92.8742 173.307 92.6039 171.925C92.3737 170.717 92.0862 169.547 91.772 168.396C90.9299 169.838 89.8729 171.341 88.6925 172.314C88.6925 172.314 90.0154 169.504 90.9077 165.585C89.9925 162.934 88.8521 160.439 87.514 158.079C87.0822 159.5 86.5072 160.944 85.7497 162.027C85.7497 162.027 86.2178 159.466 86.2216 155.937C85.9647 155.535 85.7122 155.129 85.4438 154.735C83.9518 152.561 82.2708 150.515 80.3991 148.602C80.2471 150.213 79.943 151.922 79.3567 153.248C79.3567 153.248 79.3516 150.537 78.6933 146.949C76.798 145.21 74.7158 143.599 72.4154 142.137C72.4809 143.692 72.4192 145.329 72.0586 146.665C72.0586 146.665 71.7024 144.265 70.6905 141.079C68.6369 139.892 66.4083 138.824 63.9864 137.89C64.2625 139.177 64.4386 140.498 64.3757 141.658C64.3757 141.658 63.7104 139.808 62.4085 137.309C60.6576 136.701 58.7891 136.174 56.7952 135.734C54.767 135.286 52.6249 134.916 50.1242 134.792C49.3438 137.171 48.9221 139.304 48.6143 141.358C48.3116 143.377 48.1341 145.311 48.075 147.164C49.9429 149.274 51.4312 150.558 51.4312 150.558C50.3258 150.202 49.1556 149.564 48.0527 148.845C48.0585 151.441 48.2563 153.904 48.6302 156.246C51.2416 158.332 53.3557 159.524 53.3557 159.524C51.9794 159.382 50.4282 158.854 49.0004 158.236C49.541 160.907 50.2997 163.428 51.2455 165.821C54.3593 167.72 56.888 168.695 56.888 168.695C55.4405 168.768 53.7367 168.44 52.1772 168.005C53.294 170.437 54.6016 172.739 56.0975 174.911C56.3697 175.303 56.6572 175.684 56.9408 176.068C60.2372 177.328 62.7965 177.808 62.7965 177.808C61.5137 178.128 59.9599 178.148 58.478 178.041C60.2022 180.136 62.1242 182.095 64.2714 183.898C68.2502 184.469 71.3469 184.24 71.3469 184.24C70.0151 184.994 68.233 185.443 66.5858 185.712C67.5474 186.418 68.5357 187.105 69.582 187.752C70.7757 188.499 72.035 189.201 73.356 189.86C78.0344 190.742 81.9464 190.455 81.9464 190.455C80.7826 191.114 79.274 191.539 77.8131 191.817C78.229 191.976 78.6494 192.131 79.0762 192.282C80.8513 192.905 82.744 193.446 84.7684 193.897C86.7921 194.348 88.9265 194.724 91.4171 194.854C92.1873 192.482 92.6014 190.354 92.9041 188.303C93.2081 186.252 93.3805 184.291 93.4352 182.41C93.4466 181.957 93.4523 181.509 93.453 181.064C92.6688 182.331 91.7319 183.587 90.6997 184.437Z" fill="#6E7FDD"/>
<mask id="mask0_7031_1381" style="mask-type:luminance" maskUnits="userSpaceOnUse" x="48" y="134" width="46" height="61">
<path d="M90.6997 184.437C90.6997 184.437 92.3686 180.887 93.2202 176.203C93.0777 174.734 92.8742 173.307 92.6039 171.925C92.3737 170.717 92.0862 169.547 91.772 168.396C90.9299 169.838 89.8729 171.341 88.6925 172.314C88.6925 172.314 90.0154 169.504 90.9077 165.585C89.9925 162.934 88.8521 160.439 87.514 158.079C87.0822 159.5 86.5072 160.944 85.7497 162.027C85.7497 162.027 86.2178 159.466 86.2216 155.937C85.9647 155.535 85.7122 155.129 85.4438 154.735C83.9518 152.561 82.2708 150.515 80.3991 148.602C80.2471 150.213 79.943 151.922 79.3567 153.248C79.3567 153.248 79.3516 150.537 78.6933 146.949C76.798 145.21 74.7158 143.599 72.4154 142.137C72.4809 143.692 72.4192 145.329 72.0586 146.665C72.0586 146.665 71.7024 144.265 70.6905 141.079C68.6369 139.892 66.4083 138.824 63.9864 137.89C64.2625 139.177 64.4386 140.498 64.3757 141.658C64.3757 141.658 63.7104 139.808 62.4085 137.309C60.6576 136.701 58.7891 136.174 56.7952 135.734C54.767 135.286 52.6249 134.916 50.1242 134.792C49.3438 137.171 48.9221 139.304 48.6143 141.358C48.3116 143.377 48.1341 145.311 48.075 147.164C49.9429 149.274 51.4312 150.558 51.4312 150.558C50.3258 150.202 49.1556 149.564 48.0527 148.845C48.0585 151.441 48.2563 153.904 48.6302 156.246C51.2416 158.332 53.3557 159.524 53.3557 159.524C51.9794 159.382 50.4282 158.854 49.0004 158.236C49.541 160.907 50.2997 163.428 51.2455 165.821C54.3593 167.72 56.888 168.695 56.888 168.695C55.4405 168.768 53.7367 168.44 52.1772 168.005C53.294 170.437 54.6016 172.739 56.0975 174.911C56.3697 175.303 56.6572 175.684 56.9408 176.068C60.2372 177.328 62.7965 177.808 62.7965 177.808C61.5137 178.128 59.9599 178.148 58.478 178.041C60.2022 180.136 62.1242 182.095 64.2714 183.898C68.2502 184.469 71.3469 184.24 71.3469 184.24C70.0151 184.994 68.233 185.443 66.5858 185.712C67.5474 186.418 68.5357 187.105 69.582 187.752C70.7757 188.499 72.035 189.201 73.356 189.86C78.0344 190.742 81.9464 190.455 81.9464 190.455C80.7826 191.114 79.274 191.539 77.8131 191.817C78.229 191.976 78.6494 192.131 79.0762 192.282C80.8513 192.905 82.744 193.446 84.7684 193.897C86.7921 194.348 88.9265 194.724 91.4171 194.854C92.1873 192.482 92.6014 190.354 92.9041 188.303C93.2081 186.252 93.3805 184.291 93.4352 182.41C93.4466 181.957 93.4523 181.509 93.453 181.064C92.6688 182.331 91.7319 183.587 90.6997 184.437Z" fill="white"/>
</mask>
<g mask="url(#mask0_7031_1381)">
<path d="M84.4178 149.603L83.7665 149.528C83.7615 149.643 83.2101 160.918 75.6976 171.431L70.0544 163.223C77.7894 152.465 76.824 138.641 76.8132 138.502L76.1638 138.509C76.174 138.646 77.1095 152.079 69.6435 162.626L64.623 155.323C72.3275 144.487 65.0402 129.204 64.9651 129.05L64.3864 129.315C64.4589 129.465 71.4822 144.214 64.2102 154.724L58.8271 146.894C61.6579 136.132 54.3134 122.561 54.2383 122.424L53.6755 122.721C53.7473 122.853 60.7205 135.749 58.3221 146.16L47.2334 130.031L46.7094 130.391L57.798 146.52C47.2188 145.031 37.675 133.903 37.5777 133.789L37.0981 134.207C37.1986 134.326 47.2398 146.043 58.3024 147.254L63.6855 155.084C51.2695 158.11 40.0129 146.271 39.8985 146.15L39.4437 146.595C39.5607 146.72 51.2212 158.996 64.0982 155.684L69.1188 162.987C56.6062 166.179 44.3899 160.497 44.2665 160.438L44.0274 161.042C44.1533 161.103 56.7156 166.954 69.5297 163.584L75.1729 171.792C62.6755 175.039 51.9411 171.519 51.8324 171.483L51.6689 172.118C51.7789 172.155 62.8065 175.779 75.5831 172.389L79.8284 178.564C67.3368 181.867 58.0753 180.509 57.9825 180.495L57.9291 181.157C58.0238 181.171 67.5078 182.568 80.2374 179.159L84.8675 185.893C74.4008 188.648 66.6461 187.518 66.5678 187.506L66.5151 188.168C66.5952 188.181 74.5719 189.351 85.2777 186.49L89.1357 192.101C82.5632 193.852 77.7328 193.209 77.6838 193.202L77.6381 193.865C77.8454 193.894 82.7394 194.553 89.5446 192.697L97.0628 203.631L97.5868 203.272L90.0687 192.337C94.2383 186.648 95.3767 181.842 95.4232 181.638L94.7878 181.443C94.7763 181.492 93.6474 186.232 89.6591 191.741L85.8011 186.13C92.3055 177.158 94.0698 169.291 94.0863 169.212L93.4496 169.024C93.4331 169.102 91.7108 176.747 85.3909 185.533L80.7608 178.798C88.5016 168.133 90.594 158.778 90.6144 158.684L89.9777 158.497C89.9574 158.589 87.9088 167.722 80.3512 178.203L76.1059 172.028C83.848 161.313 84.4134 149.719 84.4178 149.603Z" fill="#B3C9F9"/>
</g>
<path opacity="0.1" d="M86.221 155.938C85.964 155.536 85.7116 155.131 85.4432 154.736C83.9511 152.562 82.2702 150.517 80.3984 148.603C80.2464 150.214 79.9424 151.923 79.356 153.249C79.356 153.249 79.3509 150.538 78.6927 146.951C76.7974 145.211 74.7151 143.6 72.4147 142.139C72.4802 143.693 72.4185 145.331 72.0579 146.666C72.0579 146.666 71.7017 144.266 70.6899 141.08C68.6362 139.893 66.4077 138.826 63.9858 137.891C64.2618 139.179 64.438 140.5 64.375 141.659C64.375 141.659 63.7098 139.81 62.4079 137.31C60.657 136.702 58.7884 136.175 56.7945 135.735C54.7663 135.287 52.6243 134.917 50.1235 134.793L91.4165 194.855C92.1867 192.483 92.6007 190.356 92.9034 188.305C93.2075 186.253 93.3798 184.292 93.4345 182.411C93.4459 181.959 93.4517 181.51 93.4523 181.065C92.6694 182.33 91.7326 183.586 90.701 184.437C90.701 184.437 92.3698 180.888 93.2214 176.203C93.079 174.734 92.8755 173.307 92.6052 171.925C92.3749 170.717 92.0875 169.547 91.7733 168.396C90.9312 169.838 89.8742 171.341 88.6938 172.314C88.6938 172.314 90.0166 169.504 90.909 165.585C89.9937 162.934 88.8534 160.439 87.5153 158.079C87.0834 159.5 86.5085 160.944 85.751 162.027C85.7491 162.028 86.2172 159.466 86.221 155.938Z" fill="#0046A0"/>
<path d="M263.657 239.968C263.657 239.968 267.571 240.22 272.242 239.296C273.557 238.626 274.81 237.913 275.997 237.156C277.038 236.499 278.02 235.803 278.975 235.089C277.325 234.833 275.539 234.401 274.201 233.658C274.201 233.658 277.3 233.86 281.274 233.254C283.405 231.431 285.309 229.456 287.015 227.346C285.535 227.465 283.98 227.459 282.695 227.151C282.695 227.151 285.25 226.648 288.535 225.359C288.814 224.972 289.099 224.589 289.368 224.195C290.844 222.009 292.131 219.696 293.226 217.254C291.671 217.703 289.97 218.046 288.522 217.987C288.522 217.987 291.042 216.989 294.139 215.062C295.064 212.661 295.8 210.133 296.316 207.457C294.894 208.088 293.347 208.63 291.973 208.784C291.973 208.784 294.076 207.574 296.669 205.464C297.022 203.119 297.197 200.654 297.18 198.058C296.084 198.786 294.919 199.435 293.817 199.801C293.817 199.801 295.294 198.505 297.143 196.377C297.067 194.525 296.872 192.593 296.551 190.576C296.225 188.525 295.784 186.396 294.983 184.024C292.483 184.169 290.345 184.558 288.32 185.025C286.33 185.483 284.466 186.026 282.721 186.65C281.441 189.161 280.793 191.016 280.793 191.016C280.719 189.857 280.884 188.534 281.148 187.245C278.735 188.201 276.515 189.288 274.473 190.494C273.489 193.688 273.154 196.091 273.154 196.091C272.782 194.759 272.706 193.122 272.757 191.567C270.47 193.048 268.402 194.678 266.523 196.435C265.896 200.028 265.915 202.738 265.915 202.738C265.317 201.418 264.998 199.712 264.831 198.101C262.977 200.032 261.314 202.092 259.842 204.28C259.577 204.676 259.328 205.084 259.075 205.488C259.11 209.017 259.601 211.574 259.601 211.574C258.833 210.498 258.246 209.059 257.802 207.641C256.485 210.013 255.367 212.519 254.475 215.178C255.401 219.089 256.75 221.887 256.75 221.887C255.56 220.924 254.49 219.431 253.635 217.997C253.331 219.15 253.054 220.321 252.835 221.532C252.577 222.916 252.386 224.345 252.256 225.816C253.15 230.492 254.85 234.027 254.85 234.027C253.811 233.185 252.863 231.937 252.069 230.679C252.073 231.125 252.083 231.573 252.099 232.025C252.17 233.904 252.359 235.864 252.682 237.913C253.003 239.962 253.436 242.085 254.227 244.45C256.717 244.297 258.848 243.903 260.867 243.434C262.888 242.965 264.775 242.407 266.545 241.769C266.97 241.613 267.389 241.454 267.804 241.292C266.339 241.028 264.827 240.617 263.657 239.968Z" fill="#6E7FDD"/>
<mask id="mask1_7031_1381" style="mask-type:luminance" maskUnits="userSpaceOnUse" x="252" y="184" width="46" height="61">
<path d="M263.657 239.968C263.657 239.968 267.571 240.22 272.242 239.296C273.557 238.626 274.81 237.913 275.997 237.156C277.038 236.499 278.02 235.803 278.975 235.089C277.325 234.833 275.539 234.401 274.201 233.658C274.201 233.658 277.3 233.86 281.274 233.254C283.405 231.431 285.309 229.456 287.015 227.346C285.535 227.465 283.98 227.459 282.695 227.151C282.695 227.151 285.25 226.648 288.535 225.359C288.814 224.972 289.099 224.589 289.368 224.195C290.844 222.009 292.131 219.696 293.226 217.254C291.671 217.703 289.97 218.046 288.522 217.987C288.522 217.987 291.042 216.989 294.139 215.062C295.064 212.661 295.8 210.133 296.316 207.457C294.894 208.088 293.347 208.63 291.973 208.784C291.973 208.784 294.076 207.574 296.669 205.464C297.022 203.119 297.197 200.654 297.18 198.058C296.084 198.786 294.919 199.435 293.817 199.801C293.817 199.801 295.294 198.505 297.143 196.377C297.067 194.525 296.872 192.593 296.551 190.576C296.225 188.525 295.784 186.396 294.983 184.024C292.483 184.169 290.345 184.558 288.32 185.025C286.33 185.483 284.466 186.026 282.721 186.65C281.441 189.161 280.793 191.016 280.793 191.016C280.719 189.857 280.884 188.534 281.148 187.245C278.735 188.201 276.515 189.288 274.473 190.494C273.489 193.688 273.154 196.091 273.154 196.091C272.782 194.759 272.706 193.122 272.757 191.567C270.47 193.048 268.402 194.678 266.523 196.435C265.896 200.028 265.915 202.738 265.915 202.738C265.317 201.418 264.998 199.712 264.831 198.101C262.977 200.032 261.314 202.092 259.842 204.28C259.577 204.676 259.328 205.084 259.075 205.488C259.11 209.017 259.601 211.574 259.601 211.574C258.833 210.498 258.246 209.059 257.802 207.641C256.485 210.013 255.367 212.519 254.475 215.178C255.401 219.089 256.75 221.887 256.75 221.887C255.56 220.924 254.49 219.431 253.635 217.997C253.331 219.15 253.054 220.321 252.835 221.532C252.577 222.916 252.386 224.345 252.256 225.816C253.15 230.492 254.85 234.027 254.85 234.027C253.811 233.185 252.863 231.937 252.069 230.679C252.073 231.125 252.083 231.573 252.099 232.025C252.17 233.904 252.359 235.864 252.682 237.913C253.003 239.962 253.436 242.085 254.227 244.45C256.717 244.297 258.848 243.903 260.867 243.434C262.888 242.965 264.775 242.407 266.545 241.769C266.97 241.613 267.389 241.454 267.804 241.292C266.339 241.028 264.827 240.617 263.657 239.968Z" fill="white"/>
</mask>
<g mask="url(#mask1_7031_1381)">
<path d="M293.768 221.361L293.599 220.727C293.491 220.764 282.798 224.382 270.262 221.244L275.832 212.986C288.676 216.242 301.186 210.279 301.311 210.218L301.067 209.616C300.944 209.676 288.787 215.469 276.238 212.386L281.193 205.039C294.1 208.237 305.65 195.858 305.766 195.731L305.307 195.29C305.193 195.412 294.043 207.351 281.6 204.435L286.914 196.558C297.965 195.248 307.901 183.443 308.001 183.323L307.518 182.908C307.422 183.024 297.978 194.236 287.412 195.819L298.357 179.592L297.83 179.236L286.885 195.463C284.394 185.074 291.252 172.117 291.323 171.985L290.757 171.692C290.684 171.83 283.461 185.465 286.387 196.202L281.074 204.079C273.709 193.635 280.601 178.824 280.672 178.673L280.091 178.413C280.017 178.567 272.866 193.915 280.667 204.683L275.712 212.03C268.157 201.556 268.968 188.108 268.977 187.972L268.328 187.971C268.318 188.11 267.476 201.942 275.307 212.631L269.736 220.889C262.136 210.449 261.479 199.172 261.472 199.058L260.822 199.138C260.827 199.255 261.496 210.842 269.331 221.488L265.141 227.701C257.491 217.288 255.362 208.173 255.34 208.082L254.705 208.274C254.726 208.368 256.901 217.704 264.737 228.299L260.168 235.075C253.77 226.345 251.98 218.716 251.963 218.639L251.327 218.832C251.345 218.911 253.179 226.762 259.763 235.676L255.955 241.321C251.918 235.847 250.746 231.117 250.735 231.069L250.101 231.27C250.15 231.473 251.331 236.268 255.551 241.92L248.131 252.921L248.658 253.277L256.078 242.275C262.899 244.071 267.788 243.369 267.995 243.338L267.944 242.676C267.895 242.683 263.07 243.369 256.483 241.677L260.291 236.032C271.022 238.797 278.988 237.556 279.068 237.542L279.009 236.881C278.93 236.894 271.187 238.093 260.696 235.431L265.265 228.656C278.025 231.951 287.496 230.471 287.591 230.455L287.532 229.794C287.439 229.809 278.19 231.249 265.67 228.057L269.86 221.845C282.664 225.121 293.658 221.399 293.768 221.361Z" fill="#B3C9F9"/>
</g>
<path opacity="0.1" d="M288.534 225.359C288.814 224.972 289.098 224.59 289.367 224.195C290.844 222.01 292.13 219.697 293.226 217.255C291.67 217.704 289.969 218.046 288.521 217.987C288.521 217.987 291.041 216.989 294.138 215.062C295.063 212.661 295.799 210.133 296.315 207.458C294.893 208.089 293.346 208.63 291.972 208.785C291.972 208.785 294.075 207.575 296.668 205.465C297.021 203.119 297.197 200.654 297.18 198.059C296.083 198.787 294.919 199.435 293.816 199.801C293.816 199.801 295.293 198.505 297.142 196.377C297.066 194.526 296.872 192.594 296.551 190.577C296.224 188.525 295.784 186.397 294.982 184.024L254.226 244.451C256.715 244.299 258.847 243.904 260.866 243.435C262.886 242.966 264.774 242.408 266.543 241.77C266.969 241.615 267.388 241.456 267.803 241.293C266.339 241.028 264.827 240.617 263.657 239.968C263.657 239.968 267.571 240.22 272.242 239.296C273.557 238.625 274.81 237.913 275.997 237.156C277.037 236.499 278.02 235.803 278.975 235.089C277.325 234.833 275.539 234.401 274.201 233.658C274.201 233.658 277.3 233.86 281.274 233.254C283.404 231.431 285.309 229.456 287.015 227.346C285.534 227.465 283.98 227.459 282.695 227.151C282.695 227.151 285.249 226.648 288.534 225.359Z" fill="#0046A0"/>
<path d="M159 293.065C239.686 293.065 305.095 288.206 305.095 282.212C305.095 276.219 239.686 271.36 159 271.36C78.3142 271.36 12.9053 276.219 12.9053 282.212C12.9053 288.206 78.3142 293.065 159 293.065Z" fill="#EDF0FC"/>
<path d="M267.383 110.16H81.9995V276.464H267.383V110.16Z" fill="#F5F9FF"/>
<path d="M267.383 110.16H81.9995V129.827H267.383V110.16Z" fill="#D0DBF7"/>
<path d="M96.9564 119.994C96.9564 122.08 95.2653 123.771 93.1786 123.771C91.0925 123.771 89.4014 122.08 89.4014 119.994C89.4014 117.907 91.0925 116.216 93.1786 116.216C95.2653 116.216 96.9564 117.907 96.9564 119.994Z" fill="#EB725F"/>
<path d="M109.677 119.994C109.677 122.08 107.986 123.771 105.899 123.771C103.813 123.771 102.122 122.08 102.122 119.994C102.122 117.907 103.813 116.216 105.899 116.216C107.986 116.216 109.677 117.907 109.677 119.994Z" fill="#F9AB43"/>
<path d="M122.396 119.994C122.396 122.08 120.705 123.771 118.619 123.771C116.532 123.771 114.841 122.08 114.841 119.994C114.841 117.907 116.532 116.216 118.619 116.216C120.705 116.216 122.396 117.907 122.396 119.994Z" fill="#6E7FDD"/>
<path d="M240.218 186.605C241.106 184.352 239.852 182.509 237.43 182.509H148.2C145.778 182.509 143.07 184.352 142.182 186.605L122.403 236.765C121.514 239.017 122.769 240.86 125.19 240.86H214.421C216.842 240.86 219.551 239.017 220.439 236.765L240.218 186.605Z" fill="#FFCF74"/>
<path d="M118.126 232.487L137.905 182.327C138.793 180.075 141.501 178.232 143.922 178.232H213.97V173.787C213.97 171.365 211.988 169.384 209.567 169.384H178.321C175.899 169.384 172.973 167.643 171.817 165.515L167.563 157.677C166.408 155.549 163.481 153.808 161.06 153.808H120.913C118.491 153.808 116.51 155.789 116.51 158.21V232.178C116.51 234.304 118.039 236.09 120.051 236.494C118.208 236.108 117.35 234.454 118.126 232.487Z" fill="#FFCF74"/>
<path d="M182.958 196.39C173.77 196.39 166.321 203.838 166.321 213.026C166.321 222.215 173.769 229.663 182.958 229.663C192.146 229.663 199.594 222.215 199.594 213.026C199.594 203.839 192.145 196.39 182.958 196.39ZM191.098 218.769L188.701 221.166L182.958 215.424L177.215 221.166L174.818 218.769L180.561 213.026L174.818 207.284L177.215 204.887L182.958 210.63L188.701 204.887L191.098 207.284L185.355 213.026L191.098 218.769Z" fill="#EB725F"/>
<path d="M79.2912 284.946C105.934 284.946 127.533 281.417 127.533 277.063C127.533 272.71 105.934 269.181 79.2912 269.181C52.6479 269.181 31.0493 272.71 31.0493 277.063C31.0493 281.417 52.6479 284.946 79.2912 284.946Z" fill="#EB725F"/>
<path d="M92.852 178.051H79.2918H65.731L44.9097 275.337C62.1796 279.059 79.2918 279.059 79.2918 279.059C79.2918 279.059 96.4034 279.059 113.673 275.337L92.852 178.051Z" fill="#FFCF74"/>
<path d="M79.2911 180.115C86.7802 180.115 92.8513 179.191 92.8513 178.051C92.8513 176.911 86.7802 175.987 79.2911 175.987C71.802 175.987 65.731 176.911 65.731 178.051C65.731 179.191 71.802 180.115 79.2911 180.115Z" fill="#EB725F"/>
<mask id="mask2_7031_1381" style="mask-type:luminance" maskUnits="userSpaceOnUse" x="44" y="178" width="70" height="102">
<path d="M92.852 178.051H79.2918H65.731L44.9097 275.337C62.1796 279.059 79.2918 279.059 79.2918 279.059C79.2918 279.059 96.4034 279.059 113.673 275.337L92.852 178.051Z" fill="white"/>
</mask>
<g mask="url(#mask2_7031_1381)">
<path d="M78.7009 271.06C50.7869 271.06 31.9365 266.394 30.7656 266.097L34.649 250.803L32.7073 258.45L34.6408 250.8C35.0408 250.901 75.2735 260.761 124.371 250.72L127.534 266.18C109.654 269.836 92.9887 271.06 78.7009 271.06Z" fill="#F9AB43"/>
<path d="M78.7009 236.729C50.7869 236.729 31.9365 232.063 30.7656 231.766L34.649 216.472L32.7073 224.119L34.6408 216.47C35.0408 216.57 75.2735 226.43 124.371 216.389L127.534 231.849C109.654 235.505 92.9887 236.729 78.7009 236.729Z" fill="#F9AB43"/>
<path d="M78.7009 202.398C50.7869 202.398 31.9365 197.733 30.7656 197.436L34.649 182.142L32.7073 189.788L34.6408 182.139C35.0408 182.24 75.2735 192.1 124.371 182.058L127.534 197.518C109.654 201.175 92.9887 202.398 78.7009 202.398Z" fill="#F9AB43"/>
</g>
<path opacity="0.1" d="M96.2417 224.991C96.2417 246.145 91.8629 265.253 84.8198 278.901C91.2498 278.606 102.426 277.761 113.673 275.337L92.8519 178.051H87.9941C93.1533 190.908 96.2417 207.227 96.2417 224.991Z" fill="#0046A0"/>
<g opacity="0.3">
<path d="M67.2042 193.061C66.7087 195.452 66.2133 197.842 65.7172 200.233C64.5266 205.975 63.336 211.718 62.1454 217.459C60.6979 224.44 59.251 231.421 57.8035 238.402C56.5582 244.409 55.3129 250.417 54.067 256.424C53.464 259.332 52.7199 262.249 52.2512 265.183C52.2448 265.224 52.234 265.265 52.2257 265.306C51.7271 267.711 55.4744 268.393 55.9718 265.996C56.4672 263.606 56.9633 261.215 57.4588 258.824C58.6493 253.082 59.8399 247.34 61.0305 241.598C62.4781 234.617 63.925 227.635 65.3725 220.655C66.6178 214.648 67.8637 208.64 69.109 202.633C69.7119 199.725 70.456 196.808 70.9248 193.874C70.9311 193.833 70.942 193.791 70.9502 193.751C71.4482 191.346 67.7009 190.664 67.2042 193.061Z" fill="white"/>
</g>
<path d="M257.368 250.349L167.441 276.019L169.018 281.543L258.945 255.872L257.368 250.349Z" fill="#6E7FDD"/>
<path d="M257.368 250.348L216.359 262.055L217.936 267.578L258.944 255.872L257.368 250.348Z" fill="#EB725F"/>
<path d="M260.6 281.772C276.442 280.425 288.192 266.492 286.845 250.651C285.499 234.809 271.565 223.059 255.724 224.406C239.883 225.752 228.133 239.686 229.479 255.527C230.826 271.368 244.759 283.118 260.6 281.772Z" fill="#EB725F"/>
<path d="M279.34 262.529C284.551 250.839 279.3 237.139 267.61 231.928C255.921 226.717 242.221 231.968 237.009 243.657C231.798 255.347 237.05 269.047 248.739 274.258C260.428 279.47 274.129 274.218 279.34 262.529Z" fill="#D0DBF7"/>
<path d="M275.575 248.127L272.814 248.915C270.506 240.834 262.054 236.136 253.973 238.444L253.184 235.682C262.788 232.94 272.833 238.523 275.575 248.127Z" fill="white"/>
<path d="M236.702 109.112L209.15 100.759L192.583 155.407L235.395 168.386L247.466 128.569L236.702 109.112Z" fill="#E2E6FF"/>
<path d="M233.919 130.713L231.95 127.03L223.129 131.747L218.412 122.926L214.73 124.895L219.447 133.716L210.626 138.433L212.594 142.115L221.416 137.398L226.133 146.219L229.815 144.25L225.098 135.429L233.919 130.713Z" fill="#CAD2F9"/>
<path d="M163.588 71.6939L135.615 78.508L149.13 133.989L192.596 123.401L182.749 82.9778L163.588 71.6939Z" fill="#E2E6FF"/>
<path d="M172.172 91.7094L168.605 89.54L163.406 98.086L154.86 92.8879L152.69 96.4553L161.237 101.653L156.038 110.2L159.606 112.369L164.804 103.823L173.351 109.021L175.52 105.454L166.974 100.256L172.172 91.7094Z" fill="#CAD2F9"/>
<path d="M261.611 76.6897H254.5V69.5786H251.969V76.6897H244.858V79.2203H251.969V86.3308H254.5V79.2203H261.611V76.6897Z" fill="#E2E6FF"/>
<path d="M277.537 101.157H273.664V97.2833H272.285V101.157H268.412V102.535H272.285V106.408H273.664V102.535H277.537V101.157Z" fill="#E2E6FF"/>
<path d="M234.793 94.3985H230.103V89.7086H228.433V94.3985H223.743V96.068H228.433V100.758H230.103V96.068H234.793V94.3985Z" fill="#E2E6FF"/>
<path d="M57.2161 93.6671H50.105V86.5566H47.5743V93.6671H40.4639V96.1983H47.5743V103.309H50.105V96.1983H57.2161V93.6671Z" fill="#E2E6FF"/>
<path d="M88.2537 89.423H84.3805V85.5498H83.0017V89.423H79.1284V90.8013H83.0017V94.6745H84.3805V90.8013H88.2537V89.423Z" fill="#E2E6FF"/>
<path d="M64.6719 121.009H59.9814V116.318H58.3119V121.009H53.6221V122.678H58.3119V127.368H59.9814V122.678H64.6719V121.009Z" fill="#E2E6FF"/>
<path d="M220.393 64.9192C220.393 65.7708 219.703 66.4609 218.852 66.4609C218 66.4609 217.31 65.7708 217.31 64.9192C217.31 64.0683 218 63.3776 218.852 63.3776C219.703 63.3776 220.393 64.0676 220.393 64.9192Z" fill="#CAD2F9"/>
<path d="M290.005 120.345C290.005 121.957 288.698 123.264 287.086 123.264C285.473 123.264 284.167 121.957 284.167 120.345C284.167 118.732 285.473 117.425 287.086 117.425C288.698 117.425 290.005 118.732 290.005 120.345Z" fill="#CAD2F9"/>
<path d="M197.601 80.9954C197.601 81.847 196.911 82.5371 196.059 82.5371C195.208 82.5371 194.518 81.847 194.518 80.9954C194.518 80.1438 195.208 79.4537 196.059 79.4537C196.911 79.4537 197.601 80.1438 197.601 80.9954Z" fill="#CAD2F9"/>
<path d="M109.812 64.9192C109.812 66.5315 108.505 67.8385 106.892 67.8385C105.28 67.8385 103.973 66.5315 103.973 64.9192C103.973 63.307 105.28 62 106.892 62C108.505 62 109.812 63.307 109.812 64.9192Z" fill="#CAD2F9"/>
<path d="M121.154 95.8689C121.154 96.7205 120.464 97.4106 119.612 97.4106C118.76 97.4106 118.07 96.7205 118.07 95.8689C118.07 95.0173 118.76 94.3273 119.612 94.3273C120.464 94.3279 121.154 95.018 121.154 95.8689Z" fill="#CAD2F9"/>
<path d="M31.0784 125.721C31.0784 126.573 30.3884 127.263 29.5368 127.263C28.6852 127.263 27.9951 126.573 27.9951 125.721C27.9951 124.87 28.6852 124.18 29.5368 124.18C30.3884 124.18 31.0784 124.87 31.0784 125.721Z" fill="#CAD2F9"/>
</svg>
